<?xml version="1.0" encoding="UTF-8" standalone="no"?>
<!-- Created with Fritzing (http://www.fritzing.org/) -->

<svg
   xmlns:dc="http://purl.org/dc/elements/1.1/"
   xmlns:cc="http://creativecommons.org/ns#"
   xmlns:rdf="http://www.w3.org/1999/02/22-rdf-syntax-ns#"
   xmlns:svg="http://www.w3.org/2000/svg"
   xmlns="http://www.w3.org/2000/svg"
   xmlns:sodipodi="http://sodipodi.sourceforge.net/DTD/sodipodi-0.dtd"
   xmlns:inkscape="http://www.inkscape.org/namespaces/inkscape"
   version="1.2"
   x="0in"
   y="0in"
   width="3.20371in"
   height="2.62926in"
   viewBox="0 0 230.667 189.307"
   id="svg1012"
   sodipodi:docname="unoshield_pcbjuanbigger.svg"
   inkscape:version="0.92.2 5c3e80d, 2017-08-06">
  <metadata
     id="metadata1018">
    <rdf:RDF>
      <cc:Work
         rdf:about="">
        <dc:format>image/svg+xml</dc:format>
        <dc:type
           rdf:resource="http://purl.org/dc/dcmitype/StillImage" />
        <dc:title />
      </cc:Work>
    </rdf:RDF>
  </metadata>
  <defs
     id="defs1016" />
  <sodipodi:namedview
     pagecolor="#ffffff"
     bordercolor="#666666"
     borderopacity="1"
     objecttolerance="10"
     gridtolerance="10"
     guidetolerance="10"
     inkscape:pageopacity="0"
     inkscape:pageshadow="2"
     inkscape:window-width="1440"
     inkscape:window-height="785"
     id="namedview1014"
     showgrid="false"
     inkscape:zoom="2"
     inkscape:cx="224.21877"
     inkscape:cy="122.14453"
     inkscape:window-x="0"
     inkscape:window-y="1"
     inkscape:window-maximized="1"
     inkscape:current-layer="svg1012" />
  <g
     partID="57472"
     id="g13">
    <g
       transform="translate(0,3.44)"
       id="g11">
      <g
         id="silkscreen0">
        <rect
           fill="none"
           stroke="#000000"
           width="230.091"
           x="0.288"
           height="185.291"
           y="0.288"
           stroke-width="0.576"
           id="rect8" />
      </g>
    </g>
  </g>
  <g
     partID="57471"
     id="g806">
    <g
       transform="translate(0,3.44)"
       id="g804">
      <g
         id="g802">
        <rect
           fill="none"
           stroke="#000000"
           width="230.091"
           x="0.288"
           height="185.291"
           y="0.288"
           stroke-width="0.576"
           id="rect800" />
      </g>
    </g>
  </g>
  <g
     aria-label="JR"
     transform="rotate(90)"
     style="font-style:normal;font-variant:normal;font-weight:bold;font-stretch:normal;font-size:14.00002003px;line-height:1.25;font-family:sans-serif;-inkscape-font-specification:'sans-serif Bold';letter-spacing:0px;word-spacing:0px;fill:#000000;fill-opacity:1;stroke:none;stroke-width:0.75000107"
     id="text1059">
    <path
       d="m 163.77229,-22.886628 h 2.63184 v 9.214856 q 0,1.90723 -1.03906,2.850591 -1.03223,0.9433602 -3.13086,0.9433602 H 161.701 v -1.9892602 h 0.41016 q 0.82031,0 1.23731,-0.458009 0.42382,-0.458008 0.42382,-1.346682 z"
       style="font-style:normal;font-variant:normal;font-weight:bold;font-stretch:normal;font-size:14.00002003px;font-family:sans-serif;-inkscape-font-specification:'sans-serif Bold';stroke-width:0.75000107"
       id="path1061" />
    <path
       d="m 172.73422,-18.361231 q 0.82715,0 1.18262,-0.307618 0.36231,-0.307618 0.36231,-1.01172 0,-0.697267 -0.36231,-0.998048 -0.35547,-0.300782 -1.18262,-0.300782 h -1.10742 v 2.618168 z m -1.10742,1.818362 v 3.86231 h -2.63184 v -10.206069 h 4.01954 q 2.0166,0 2.95313,0.676758 0.94336,0.676759 0.94336,2.139652 0,1.01172 -0.49219,1.661135 -0.48535,0.649415 -1.46973,0.957033 0.54004,0.123047 0.96387,0.560547 0.43066,0.430665 0.86816,1.312502 l 1.42872,2.898442 h -2.80274 l -1.24415,-2.536137 q -0.37597,-0.765626 -0.76562,-1.0459 -0.38281,-0.280273 -1.02539,-0.280273 z"
       style="font-style:normal;font-variant:normal;font-weight:bold;font-stretch:normal;font-size:14.00002003px;font-family:sans-serif;-inkscape-font-specification:'sans-serif Bold';stroke-width:0.75000107"
       id="path1063" />
  </g>
  <g
     aria-label="EECS149: ASL Glove"
     transform="rotate(90,1.1250016,1.1250016)"
     style="font-style:normal;font-variant:normal;font-weight:bold;font-stretch:normal;font-size:11.00001621px;line-height:1.25;font-family:'.Damascus PUA';-inkscape-font-specification:'.Damascus PUA, Bold';font-variant-ligatures:normal;font-variant-caps:normal;font-variant-numeric:normal;font-feature-settings:normal;text-align:start;letter-spacing:0px;word-spacing:0px;writing-mode:lr-tb;text-anchor:start;fill:#000000;fill-opacity:1;stroke:none;stroke-width:0.75000107"
     id="text1106">
    <path
       d="m 10.356548,-219.94197 h 5.580575 v 1.56299 h -3.512701 v 1.49317 h 3.303228 v 1.56299 h -3.303228 v 1.83692 h 3.630865 v 1.56299 h -5.698739 z"
       id="path1110"
       inkscape:connector-curvature="0" />
    <path
       d="m 17.87609,-219.94197 h 5.580575 v 1.56299 h -3.512701 v 1.49317 h 3.303228 v 1.56299 h -3.303228 v 1.83692 h 3.630865 v 1.56299 H 17.87609 Z"
       id="path1112"
       inkscape:connector-curvature="0" />
    <path
       d="m 31.755017,-212.36334 q -0.569337,0.29541 -1.187014,0.4458 -0.617676,0.15039 -1.289064,0.15039 -2.003421,0 -3.174321,-1.11719 -1.1709,-1.12256 -1.1709,-3.04004 0,-1.92286 1.1709,-3.04005 1.1709,-1.12256 3.174321,-1.12256 0.671388,0 1.289064,0.15039 0.617677,0.15039 1.187014,0.44581 v 1.65967 q -0.574708,-0.39209 -1.133303,-0.57471 -0.558594,-0.18262 -1.176271,-0.18262 -1.106447,0 -1.740237,0.70899 -0.63379,0.70898 -0.63379,1.95508 0,1.24072 0.63379,1.94971 0.63379,0.70898 1.740237,0.70898 0.617677,0 1.176271,-0.18262 0.558595,-0.18261 1.133303,-0.5747 z"
       id="path1114"
       inkscape:connector-curvature="0" />
    <path
       d="m 39.269188,-219.68953 v 1.69727 q -0.660645,-0.29541 -1.289064,-0.4458 -0.628419,-0.15039 -1.187014,-0.15039 -0.741212,0 -1.095705,0.2041 -0.354492,0.2041 -0.354492,0.63379 0,0.32227 0.236328,0.50489 0.2417,0.17724 0.870119,0.30615 l 0.88086,0.17724 q 1.337405,0.26856 1.90137,0.81641 0.563966,0.54785 0.563966,1.55762 0,1.32666 -0.789552,1.97657 -0.784181,0.64453 -2.400882,0.64453 -0.762697,0 -1.530764,-0.14502 -0.768068,-0.14502 -1.536135,-0.42969 v -1.74561 q 0.768067,0.40821 1.482424,0.61768 0.719727,0.2041 1.385744,0.2041 0.676759,0 1.036623,-0.22558 0.359863,-0.22559 0.359863,-0.64454 0,-0.37597 -0.24707,-0.58008 -0.2417,-0.2041 -0.97217,-0.36523 l -0.800294,-0.17725 q -1.203127,-0.25781 -1.761721,-0.82178 -0.553224,-0.56396 -0.553224,-1.52002 0,-1.19775 0.773439,-1.84228 0.773439,-0.64454 2.223636,-0.64454 0.660646,0 1.358889,0.10205 0.698243,0.0967 1.444826,0.29541 z"
       id="path1116"
       inkscape:connector-curvature="0" />
    <path
       d="m 41.895657,-213.35163 h 1.826174 v -5.18311 l -1.874514,0.38672 v -1.40723 l 1.863772,-0.38672 h 1.965823 v 6.59034 h 1.826175 v 1.42872 h -5.60743 z"
       id="path1118"
       inkscape:connector-curvature="0" />
    <path
       d="m 52.304852,-218.23933 -2.266605,3.35694 h 2.266605 z m -0.343751,-1.70264 h 2.298832 v 5.05958 h 1.144044 v 1.49854 h -1.144044 v 1.46094 h -1.955081 v -1.46094 h -3.55567 v -1.77247 z"
       id="path1120"
       inkscape:connector-curvature="0" />
    <path
       d="m 57.004566,-212.10016 v -1.48242 q 0.494141,0.23095 0.945314,0.34912 0.451172,0.11279 0.891603,0.11279 0.923829,0 1.439455,-0.51025 0.515626,-0.51563 0.606934,-1.5254 -0.365235,0.26856 -0.778809,0.40284 -0.413575,0.13427 -0.896974,0.13427 -1.229983,0 -1.987308,-0.71435 -0.751954,-0.71973 -0.751954,-1.89063 0,-1.29444 0.837892,-2.07325 0.843263,-0.7788 2.255862,-0.7788 1.568362,0 2.427738,1.0581 0.859377,1.05811 0.859377,2.99171 0,1.9873 -1.004396,3.12598 -1.004396,1.1333 -2.755376,1.1333 -0.563965,0 -1.079591,-0.0859 -0.515626,-0.0806 -1.009767,-0.24707 z m 2.551273,-3.86182 q 0.542481,0 0.816408,-0.34912 0.273926,-0.3545 0.273926,-1.05811 0,-0.69824 -0.273926,-1.05274 -0.273927,-0.35449 -0.816408,-0.35449 -0.542481,0 -0.816407,0.35449 -0.273926,0.3545 -0.273926,1.05274 0,0.70361 0.273926,1.05811 0.273926,0.34912 0.816407,0.34912 z"
       id="path1122"
       inkscape:connector-curvature="0" />
    <path
       d="m 64.781921,-217.93855 h 1.938968 v 2.07862 h -1.938968 z m 0,3.93702 h 1.938968 v 2.07862 h -1.938968 z"
       id="path1124"
       inkscape:connector-curvature="0" />
    <path
       d="m 77.656451,-213.38385 h -3.233403 l -0.510255,1.46094 h -2.078616 l 2.970219,-8.01906 h 2.465336 l 2.970219,8.01906 h -2.078616 z m -2.717777,-1.4878 h 2.19678 l -1.095704,-3.19043 z"
       id="path1126"
       inkscape:connector-curvature="0" />
    <path
       d="m 86.878636,-219.68953 v 1.69727 q -0.660646,-0.29541 -1.289065,-0.4458 -0.628419,-0.15039 -1.187013,-0.15039 -0.741212,0 -1.095705,0.2041 -0.354493,0.2041 -0.354493,0.63379 0,0.32227 0.236329,0.50489 0.241699,0.17724 0.870118,0.30615 l 0.880861,0.17724 q 1.337404,0.26856 1.90137,0.81641 0.563966,0.54785 0.563966,1.55762 0,1.32666 -0.789552,1.97657 -0.784181,0.64453 -2.400883,0.64453 -0.762696,0 -1.530764,-0.14502 -0.768067,-0.14502 -1.536135,-0.42969 v -1.74561 q 0.768068,0.40821 1.482424,0.61768 0.719728,0.2041 1.385744,0.2041 0.676759,0 1.036623,-0.22558 0.359864,-0.22559 0.359864,-0.64454 0,-0.37597 -0.247071,-0.58008 -0.241699,-0.2041 -0.972169,-0.36523 l -0.800294,-0.17725 q -1.203127,-0.25781 -1.761722,-0.82178 -0.553223,-0.56396 -0.553223,-1.52002 0,-1.19775 0.773438,-1.84228 0.773439,-0.64454 2.223637,-0.64454 0.660645,0 1.358888,0.10205 0.698243,0.0967 1.444827,0.29541 z"
       id="path1128"
       inkscape:connector-curvature="0" />
    <path
       d="m 89.225803,-219.94197 h 2.067874 v 6.45607 h 3.630865 v 1.56299 h -5.698739 z"
       id="path1130"
       inkscape:connector-curvature="0" />
    <path
       d="m 107.26196,-212.5191 q -0.77344,0.37597 -1.60596,0.56396 -0.83252,0.18799 -1.71875,0.18799 -2.00342,0 -3.17432,-1.11719 -1.170902,-1.12256 -1.170902,-3.04004 0,-1.93897 1.192382,-3.05079 1.19239,-1.11182 3.26563,-1.11182 0.8003,0 1.53077,0.15039 0.73584,0.15039 1.38574,0.44581 v 1.65967 q -0.67139,-0.38135 -1.3374,-0.56934 -0.66065,-0.18799 -1.32667,-0.18799 -1.23535,0 -1.90674,0.69287 -0.66601,0.6875 -0.66601,1.9712 0,1.27295 0.64453,1.96582 0.64453,0.69287 1.83154,0.69287 0.32227,0 0.5962,-0.0376 0.27929,-0.043 0.49951,-0.1289 v -1.55762 h -1.26221 v -1.38575 h 3.22266 z"
       id="path1132"
       inkscape:connector-curvature="0" />
    <path
       d="m 108.99146,-220.28035 h 1.92285 v 8.35744 h -1.92285 z"
       id="path1134"
       inkscape:connector-curvature="0" />
    <path
       d="m 115.63551,-216.70856 q -0.63916,0 -0.97754,0.46191 -0.33301,0.45654 -0.33301,1.32129 0,0.86475 0.33301,1.32666 0.33838,0.45655 0.97754,0.45655 0.62842,0 0.96143,-0.45655 0.33301,-0.46191 0.33301,-1.32666 0,-0.86475 -0.33301,-1.32129 -0.33301,-0.46191 -0.96143,-0.46191 z m 0,-1.37501 q 1.55225,0 2.42237,0.8379 0.87549,0.83789 0.87549,2.32031 0,1.48243 -0.87549,2.32032 -0.87012,0.83789 -2.42237,0.83789 -1.55762,0 -2.43848,-0.83789 -0.87549,-0.83789 -0.87549,-2.32032 0,-1.48242 0.87549,-2.32031 0.88086,-0.8379 2.43848,-0.8379 z"
       id="path1136"
       inkscape:connector-curvature="0" />
    <path
       d="m 119.5779,-217.93855 h 1.92285 l 1.49854,4.15724 1.49317,-4.15724 h 1.92822 l -2.36865,6.01564 h -2.11085 z"
       id="path1138"
       inkscape:connector-curvature="0" />
    <path
       d="m 133.51591,-214.94684 v 0.54785 h -4.49561 q 0.0698,0.67676 0.48877,1.01514 0.41895,0.33838 1.1709,0.33838 0.60693,0 1.24072,-0.17725 0.63917,-0.18262 1.31055,-0.54785 v 1.48242 q -0.68213,0.25782 -1.36426,0.38672 -0.68213,0.13428 -1.36426,0.13428 -1.63281,0 -2.54053,-0.82715 -0.90234,-0.83252 -0.90234,-2.33106 0,-1.47168 0.88623,-2.31494 0.8916,-0.84327 2.44922,-0.84327 1.41797,0 2.26661,0.85401 0.854,0.854 0.854,2.28272 z m -1.97656,-0.63916 q 0,-0.54786 -0.32227,-0.88086 -0.31689,-0.33838 -0.83252,-0.33838 -0.5586,0 -0.90772,0.31689 -0.34912,0.31152 -0.43506,0.90235 z"
       id="path1140"
       inkscape:connector-curvature="0" />
  </g>
</svg>
