<?xml version="1.0" encoding="UTF-8" standalone="no"?>
<!-- Created with Fritzing (http://www.fritzing.org/) -->

<svg
   xmlns:dc="http://purl.org/dc/elements/1.1/"
   xmlns:cc="http://creativecommons.org/ns#"
   xmlns:rdf="http://www.w3.org/1999/02/22-rdf-syntax-ns#"
   xmlns:svg="http://www.w3.org/2000/svg"
   xmlns="http://www.w3.org/2000/svg"
   xmlns:sodipodi="http://sodipodi.sourceforge.net/DTD/sodipodi-0.dtd"
   xmlns:inkscape="http://www.inkscape.org/namespaces/inkscape"
   version="1.2"
   x="0in"
   y="0in"
   width="3.07963in"
   height="2.80889in"
   viewBox="0 0 221.734 202.24"
   id="svg1056"
   sodipodi:docname="mmmm.svg"
   inkscape:version="0.92.2 5c3e80d, 2017-08-06">
  <metadata
     id="metadata1062">
    <rdf:RDF>
      <cc:Work
         rdf:about="">
        <dc:format>image/svg+xml</dc:format>
        <dc:type
           rdf:resource="http://purl.org/dc/dcmitype/StillImage" />
        <dc:title></dc:title>
      </cc:Work>
    </rdf:RDF>
  </metadata>
  <defs
     id="defs1060" />
  <sodipodi:namedview
     pagecolor="#ffffff"
     bordercolor="#666666"
     borderopacity="1"
     objecttolerance="10"
     gridtolerance="10"
     guidetolerance="10"
     inkscape:pageopacity="0"
     inkscape:pageshadow="2"
     inkscape:window-width="1440"
     inkscape:window-height="772"
     id="namedview1058"
     showgrid="false"
     inkscape:snap-text-baseline="true"
     inkscape:zoom="2.49"
     inkscape:cx="137.61788"
     inkscape:cy="117.26568"
     inkscape:window-x="20"
     inkscape:window-y="0"
     inkscape:window-maximized="0"
     inkscape:current-layer="svg1056" />
  <g
     partID="57472"
     id="g13">
    <g
       transform="translate(0,0.773333)"
       id="g11">
      <g
         id="silkscreen0">
        <rect
           stroke="#000000"
           x="0.288"
           y="0.288"
           fill="none"
           height="200.89"
           width="221.158"
           stroke-width="0.576"
           id="rect8" />
      </g>
    </g>
  </g>
  <g
     partID="57471"
     id="g1000">
    <g
       transform="translate(0,0.773333)"
       id="g998">
      <g
         id="g996">
        <rect
           stroke="#000000"
           x="0.288"
           y="0.288"
           fill="none"
           height="200.89"
           width="221.158"
           stroke-width="0.576"
           id="rect994" />
      </g>
    </g>
  </g>
  <g
     aria-label="EECS149: ASL GLove"
     transform="matrix(-0.75000219,0,0,-0.75000219,199.76677,269.96191)"
     style="font-style:normal;font-weight:normal;font-size:26.66666603px;line-height:1.25;font-family:sans-serif;letter-spacing:0px;word-spacing:0px;fill:#000000;fill-opacity:1;stroke:none"
     id="flowRoot4753">
    <path
       d="m 23.042969,103.08789 h 9.316406 v 3.29297 h -5.507813 v 3 h 5.132813 v 3.19922 h -5.132813 v 3.51562 h 5.507813 v 3.33985 h -9.316406 z"
       style="font-style:normal;font-variant:normal;font-weight:normal;font-stretch:condensed;font-size:24px;font-family:'Abadi MT Condensed Extra Bold';-inkscape-font-specification:'Abadi MT Condensed Extra Bold, Condensed';font-variant-ligatures:normal;font-variant-caps:normal;font-variant-numeric:normal;font-feature-settings:normal;text-align:start;writing-mode:lr-tb;text-anchor:start"
       id="path4761"
       inkscape:connector-curvature="0" />
    <path
       d="m 34.292969,103.08789 h 9.316406 v 3.29297 h -5.507813 v 3 h 5.132813 v 3.19922 h -5.132813 v 3.51562 h 5.507813 v 3.33985 h -9.316406 z"
       style="font-style:normal;font-variant:normal;font-weight:normal;font-stretch:condensed;font-size:24px;font-family:'Abadi MT Condensed Extra Bold';-inkscape-font-specification:'Abadi MT Condensed Extra Bold, Condensed';font-variant-ligatures:normal;font-variant-caps:normal;font-variant-numeric:normal;font-feature-settings:normal;text-align:start;writing-mode:lr-tb;text-anchor:start"
       id="path4763"
       inkscape:connector-curvature="0" />
    <path
       d="m 53.757812,119.02539 q -1.417968,0.66797 -2.695312,0.66797 -2.753906,0 -4.382813,-2.40234 -1.628906,-2.40235 -1.628906,-5.97657 0,-2.20312 0.691406,-4.17187 0.703125,-1.96875 2.167969,-3.14063 1.464844,-1.18359 3.351563,-1.18359 1.160156,0 2.496093,0.59766 v 3.73828 q -0.925781,-0.91407 -1.992187,-0.91407 -1.324219,0 -2.097656,1.33594 -0.761719,1.33594 -0.761719,3.86719 0,2.16797 0.761719,3.48047 0.773437,1.30078 2.039062,1.30078 0.925781,0 2.050781,-0.87891 z"
       style="font-style:normal;font-variant:normal;font-weight:normal;font-stretch:condensed;font-size:24px;font-family:'Abadi MT Condensed Extra Bold';-inkscape-font-specification:'Abadi MT Condensed Extra Bold, Condensed';font-variant-ligatures:normal;font-variant-caps:normal;font-variant-numeric:normal;font-feature-settings:normal;text-align:start;writing-mode:lr-tb;text-anchor:start"
       id="path4765"
       inkscape:connector-curvature="0" />
    <path
       d="m 55.398437,114.54883 q 1.886719,1.75781 3.5625,1.75781 0.855469,0 1.464844,-0.55078 0.609375,-0.55078 0.609375,-1.33594 0,-0.63281 -0.433594,-1.125 -0.445312,-0.49219 -1.664062,-1.10156 -1.722656,-0.84375 -2.625,-1.88672 -0.914063,-1.04297 -0.914063,-2.64844 0,-2.03906 1.429688,-3.43359 1.429687,-1.40625 3.785156,-1.40625 1.617188,0 3.363281,0.86719 v 3.90234 q -1.546875,-1.48828 -2.964843,-1.48828 -0.703125,0 -1.21875,0.42187 -0.515625,0.42188 -0.515625,1.01954 0,0.58593 0.421875,1.00781 0.410156,0.42187 1.523437,0.91406 1.839844,0.82031 2.789063,1.875 0.949218,1.06641 0.949218,2.87109 0,2.27344 -1.640625,3.87891 -1.628906,1.60547 -3.984375,1.60547 -1.828125,0 -3.9375,-1.10156 z"
       style="font-style:normal;font-variant:normal;font-weight:normal;font-stretch:condensed;font-size:24px;font-family:'Abadi MT Condensed Extra Bold';-inkscape-font-specification:'Abadi MT Condensed Extra Bold, Condensed';font-variant-ligatures:normal;font-variant-caps:normal;font-variant-numeric:normal;font-feature-settings:normal;text-align:start;writing-mode:lr-tb;text-anchor:start"
       id="path4767"
       inkscape:connector-curvature="0" />
    <path
       d="m 71.03125,103.79102 h 3.082031 v 15.64453 h -3.574219 v -9.94922 h -2.460937 v -2.69531 h 0.574219 q 1.125,0 1.746093,-0.6211 0.632813,-0.62109 0.632813,-1.85156 z"
       style="font-style:normal;font-variant:normal;font-weight:normal;font-stretch:condensed;font-size:24px;font-family:'Abadi MT Condensed Extra Bold';-inkscape-font-specification:'Abadi MT Condensed Extra Bold, Condensed';font-variant-ligatures:normal;font-variant-caps:normal;font-variant-numeric:normal;font-feature-settings:normal;text-align:start;writing-mode:lr-tb;text-anchor:start"
       id="path4769"
       inkscape:connector-curvature="0" />
    <path
       d="m 83.992187,103.79102 h 3.726563 v 8.44921 h 1.828125 v 2.70704 H 87.71875 v 4.48828 h -3.726563 v -4.48828 h -5.4375 v -2.91797 z m 0,4.47656 -2.589843,3.97265 h 2.589843 z"
       style="font-style:normal;font-variant:normal;font-weight:normal;font-stretch:condensed;font-size:24px;font-family:'Abadi MT Condensed Extra Bold';-inkscape-font-specification:'Abadi MT Condensed Extra Bold, Condensed';font-variant-ligatures:normal;font-variant-caps:normal;font-variant-numeric:normal;font-feature-settings:normal;text-align:start;writing-mode:lr-tb;text-anchor:start"
       id="path4771"
       inkscape:connector-curvature="0" />
    <path
       d="m 97.46875,112.9082 q -0.65625,0.76172 -1.324219,1.14844 -0.65625,0.38672 -1.324219,0.38672 -1.570312,0 -2.753906,-1.48828 -1.171875,-1.48828 -1.171875,-3.67969 0,-2.39062 1.417969,-4.06641 1.417969,-1.67578 3.527344,-1.67578 2.402343,0 3.925781,2.15625 1.523435,2.15625 1.523435,5.96485 0,2.13281 -0.67968,3.97265 -0.667974,1.82813 -2.121099,2.95313 -1.441406,1.11328 -3.46875,1.11328 -1.441406,0 -3.128906,-0.69141 v -3.45703 q 1.535156,1.05469 2.671875,1.05469 1.230469,0 1.957031,-0.92578 0.726563,-0.92578 0.949219,-2.76563 z m 0,-3.32812 q -0.117188,-1.39453 -0.550781,-2.16797 -0.421875,-0.77344 -0.996094,-0.77344 -0.585938,0 -0.949219,0.69141 -0.363281,0.67969 -0.363281,1.6875 0,0.99609 0.339844,1.60547 0.339843,0.59765 0.902343,0.59765 0.398438,0 0.796875,-0.41015 0.410157,-0.41016 0.820313,-1.23047 z"
       style="font-style:normal;font-variant:normal;font-weight:normal;font-stretch:condensed;font-size:24px;font-family:'Abadi MT Condensed Extra Bold';-inkscape-font-specification:'Abadi MT Condensed Extra Bold, Condensed';font-variant-ligatures:normal;font-variant-caps:normal;font-variant-numeric:normal;font-feature-settings:normal;text-align:start;writing-mode:lr-tb;text-anchor:start"
       id="path4773"
       inkscape:connector-curvature="0" />
    <path
       d="m 105.76563,108.00977 q 0.83203,0 1.35937,0.55078 0.53906,0.53906 0.53906,1.30078 0,0.77344 -0.53906,1.32422 -0.53906,0.55078 -1.28906,0.55078 -0.73828,0 -1.27735,-0.53906 -0.53906,-0.55079 -0.53906,-1.32422 0,-0.8086 0.55078,-1.33594 0.55078,-0.52734 1.19532,-0.52734 z m 0,7.95703 q 0.83203,0 1.35937,0.55078 0.53906,0.55078 0.53906,1.3125 0,0.77344 -0.53906,1.32422 -0.53906,0.53906 -1.28906,0.53906 -0.73828,0 -1.27735,-0.53906 -0.53906,-0.55078 -0.53906,-1.3125 0,-0.79688 0.55078,-1.33594 0.55078,-0.53906 1.19532,-0.53906 z"
       style="font-style:normal;font-variant:normal;font-weight:normal;font-stretch:condensed;font-size:24px;font-family:'Abadi MT Condensed Extra Bold';-inkscape-font-specification:'Abadi MT Condensed Extra Bold, Condensed';font-variant-ligatures:normal;font-variant-caps:normal;font-variant-numeric:normal;font-feature-settings:normal;text-align:start;writing-mode:lr-tb;text-anchor:start"
       id="path4775"
       inkscape:connector-curvature="0" />
    <path
       d="m 119.81641,103.08789 h 3.78515 l 4.30078,16.34766 h -4.14843 l -0.57422,-3.2461 h -3.11719 l -0.60937,3.2461 h -3.90235 z m 1.8164,4.46484 -1.04297,5.70704 h 2.0625 z"
       style="font-style:normal;font-variant:normal;font-weight:normal;font-stretch:condensed;font-size:24px;font-family:'Abadi MT Condensed Extra Bold';-inkscape-font-specification:'Abadi MT Condensed Extra Bold, Condensed';font-variant-ligatures:normal;font-variant-caps:normal;font-variant-numeric:normal;font-feature-settings:normal;text-align:start;writing-mode:lr-tb;text-anchor:start"
       id="path4777"
       inkscape:connector-curvature="0" />
    <path
       d="m 128.75781,114.54883 q 1.88672,1.75781 3.5625,1.75781 0.85547,0 1.46485,-0.55078 0.60937,-0.55078 0.60937,-1.33594 0,-0.63281 -0.43359,-1.125 -0.44532,-0.49219 -1.66407,-1.10156 -1.72265,-0.84375 -2.625,-1.88672 -0.91406,-1.04297 -0.91406,-2.64844 0,-2.03906 1.42969,-3.43359 1.42969,-1.40625 3.78516,-1.40625 1.61718,0 3.36328,0.86719 v 3.90234 q -1.54688,-1.48828 -2.96485,-1.48828 -0.70312,0 -1.21875,0.42187 -0.51562,0.42188 -0.51562,1.01954 0,0.58593 0.42187,1.00781 0.41016,0.42187 1.52344,0.91406 1.83984,0.82031 2.78906,1.875 0.94922,1.06641 0.94922,2.87109 0,2.27344 -1.64062,3.87891 -1.62891,1.60547 -3.98438,1.60547 -1.82812,0 -3.9375,-1.10156 z"
       style="font-style:normal;font-variant:normal;font-weight:normal;font-stretch:condensed;font-size:24px;font-family:'Abadi MT Condensed Extra Bold';-inkscape-font-specification:'Abadi MT Condensed Extra Bold, Condensed';font-variant-ligatures:normal;font-variant-caps:normal;font-variant-numeric:normal;font-feature-settings:normal;text-align:start;writing-mode:lr-tb;text-anchor:start"
       id="path4779"
       inkscape:connector-curvature="0" />
    <path
       d="m 140.18359,103.08789 h 3.82032 v 13.00781 h 5.25 v 3.33985 h -9.07032 z"
       style="font-style:normal;font-variant:normal;font-weight:normal;font-stretch:condensed;font-size:24px;font-family:'Abadi MT Condensed Extra Bold';-inkscape-font-specification:'Abadi MT Condensed Extra Bold, Condensed';font-variant-ligatures:normal;font-variant-caps:normal;font-variant-numeric:normal;font-feature-settings:normal;text-align:start;writing-mode:lr-tb;text-anchor:start"
       id="path4781"
       inkscape:connector-curvature="0" />
    <path
       d="m 163.36328,118.20508 q -0.5625,0.73828 -1.20703,1.11328 -0.64453,0.375 -1.37109,0.375 -1.38282,0 -2.60157,-1.07813 -1.20703,-1.08984 -1.78125,-3.09375 -0.57422,-2.01562 -0.57422,-4.24218 0,-3.78516 1.67579,-6.11719 1.6875,-2.34375 4.54687,-2.34375 1.91016,0 3.44531,0.96094 v 3.62109 q -1.45312,-1.20703 -2.68359,-1.20703 -1.59375,0 -2.37891,1.41797 -0.78515,1.41797 -0.78515,3.86719 0,2.27343 0.52734,3.62109 0.53906,1.33594 1.45313,1.33594 0.46875,0 0.6914,-0.45703 0.23438,-0.45704 0.23438,-1.3711 v -1.01953 h -1.25391 v -2.95312 h 4.80469 v 8.80078 h -1.85156 z"
       style="font-style:normal;font-variant:normal;font-weight:normal;font-stretch:condensed;font-size:24px;font-family:'Abadi MT Condensed Extra Bold';-inkscape-font-specification:'Abadi MT Condensed Extra Bold, Condensed';font-variant-ligatures:normal;font-variant-caps:normal;font-variant-numeric:normal;font-feature-settings:normal;text-align:start;writing-mode:lr-tb;text-anchor:start"
       id="path4783"
       inkscape:connector-curvature="0" />
    <path
       d="m 168.30859,103.08789 h 3.82032 v 13.00781 h 5.25 v 3.33985 h -9.07032 z"
       style="font-style:normal;font-variant:normal;font-weight:normal;font-stretch:condensed;font-size:24px;font-family:'Abadi MT Condensed Extra Bold';-inkscape-font-specification:'Abadi MT Condensed Extra Bold, Condensed';font-variant-ligatures:normal;font-variant-caps:normal;font-variant-numeric:normal;font-feature-settings:normal;text-align:start;writing-mode:lr-tb;text-anchor:start"
       id="path4785"
       inkscape:connector-curvature="0" />
    <path
       d="m 182.93359,108.00977 q 2.3086,0 3.78516,1.52343 1.47656,1.52344 1.47656,4.26563 0,2.60156 -1.41797,4.2539 -1.41797,1.64063 -3.85547,1.64063 -2.4375,0 -3.79687,-1.62891 -1.35938,-1.6289 -1.35938,-4.14843 0,-2.625 1.41797,-4.26563 1.42969,-1.64062 3.75,-1.64062 z m 0.0352,2.85937 q -0.69141,0 -1.04297,0.75 -0.35156,0.73828 -0.35156,2.22656 0,1.46485 0.33984,2.20313 0.35156,0.73828 1.04297,0.73828 0.70313,0 1.04297,-0.72656 0.35156,-0.73828 0.35156,-2.20313 0,-1.5 -0.35156,-2.23828 -0.33984,-0.75 -1.03125,-0.75 z"
       style="font-style:normal;font-variant:normal;font-weight:normal;font-stretch:condensed;font-size:24px;font-family:'Abadi MT Condensed Extra Bold';-inkscape-font-specification:'Abadi MT Condensed Extra Bold, Condensed';font-variant-ligatures:normal;font-variant-caps:normal;font-variant-numeric:normal;font-feature-settings:normal;text-align:start;writing-mode:lr-tb;text-anchor:start"
       id="path4787"
       inkscape:connector-curvature="0" />
    <path
       d="m 188.80469,108.26758 h 3.94922 l 1.07812,7.24219 1.18359,-7.24219 h 3.8086 l -3.21094,11.16797 h -3.69141 z"
       style="font-style:normal;font-variant:normal;font-weight:normal;font-stretch:condensed;font-size:24px;font-family:'Abadi MT Condensed Extra Bold';-inkscape-font-specification:'Abadi MT Condensed Extra Bold, Condensed';font-variant-ligatures:normal;font-variant-caps:normal;font-variant-numeric:normal;font-feature-settings:normal;text-align:start;writing-mode:lr-tb;text-anchor:start"
       id="path4789"
       inkscape:connector-curvature="0" />
    <path
       d="m 208.92578,118.48633 q -2.14453,1.20703 -3.99609,1.20703 -2.41407,0 -3.92578,-1.62891 -1.5,-1.6289 -1.5,-4.17187 0,-2.46094 1.41796,-4.17188 1.42969,-1.71093 3.8086,-1.71093 2.10937,0 3.375,1.46484 1.26562,1.46484 1.26562,3.92578 v 0.92578 h -6 q 0.25782,1.125 0.87891,1.6875 0.62109,0.5625 1.60547,0.5625 0.76172,0 1.39453,-0.33984 0.63281,-0.33985 1.67578,-1.21875 z m -2.8125,-6.14063 v -0.375 q 0,-0.76172 -0.39844,-1.30078 -0.39843,-0.53906 -0.99609,-0.53906 -0.70313,0 -1.08984,0.55078 -0.375,0.55078 -0.4336,1.66406 z"
       style="font-style:normal;font-variant:normal;font-weight:normal;font-stretch:condensed;font-size:24px;font-family:'Abadi MT Condensed Extra Bold';-inkscape-font-specification:'Abadi MT Condensed Extra Bold, Condensed';font-variant-ligatures:normal;font-variant-caps:normal;font-variant-numeric:normal;font-feature-settings:normal;text-align:start;writing-mode:lr-tb;text-anchor:start"
       id="path4791"
       inkscape:connector-curvature="0" />
  </g>
  <g
     aria-label="JR"
     transform="matrix(-0.83087962,0,0,-0.75000219,60.730066,96.363531)"
     style="font-style:normal;font-variant:normal;font-weight:normal;font-stretch:normal;font-size:24px;line-height:1.25;font-family:'Bitstream Vera Sans Mono';-inkscape-font-specification:'Bitstream Vera Sans Mono, Normal';font-variant-ligatures:normal;font-variant-caps:normal;font-variant-numeric:normal;font-feature-settings:normal;text-align:start;letter-spacing:0px;word-spacing:0px;writing-mode:lr-tb;text-anchor:start;fill:#000000;fill-opacity:1;stroke:none"
     id="flowRoot4886">
    <path
       d="m 31.802734,112.80469 v -2.76563 q 1.066407,0.94922 2.203125,1.42969 1.136719,0.46875 2.355469,0.46875 1.675781,0 2.332031,-0.86719 0.667969,-0.8789 0.667969,-3.25781 v -9.796875 h -4.464844 v -1.992188 h 6.832032 V 107.8125 q 0,3.30469 -1.242188,4.67578 -1.230469,1.3711 -4.125,1.3711 -1.125,0 -2.238281,-0.25782 -1.113281,-0.25781 -2.320313,-0.79687 z"
       style=""
       id="path4894" />
    <path
       d="m 53.869141,105.25781 q 0.914062,0.23438 1.558593,0.89063 0.644532,0.64453 1.605469,2.58984 l 2.378906,4.78125 h -2.542968 l -2.085938,-4.41797 q -0.902344,-1.88672 -1.628906,-2.42578 -0.714844,-0.55078 -1.875,-0.55078 h -2.261719 v 7.39453 H 46.638672 V 96.023437 h 4.875 q 2.882812,0 4.417969,1.300782 1.535156,1.300781 1.535156,3.761721 0,1.73437 -0.949219,2.83594 -0.9375,1.08984 -2.648437,1.33593 z m -4.851563,-7.28906 v 6.21094 h 2.589844 q 1.699219,0 2.53125,-0.76172 0.832031,-0.76172 0.832031,-2.33203 0,-1.511721 -0.890625,-2.308596 -0.878906,-0.808594 -2.566406,-0.808594 z"
       style=""
       id="path4896" />
  </g>
  <g
     aria-label="TX"
     transform="matrix(0,-1.1656823,0.75000219,0,70.794451,197.10128)"
     style="font-style:normal;font-variant:normal;font-weight:normal;font-stretch:normal;font-size:8px;line-height:1.25;font-family:sans-serif;-inkscape-font-specification:'sans-serif, Normal';font-variant-ligatures:normal;font-variant-caps:normal;font-variant-numeric:normal;font-feature-settings:normal;text-align:start;letter-spacing:0px;word-spacing:0px;writing-mode:lr-tb;text-anchor:start;fill:#000000;fill-opacity:1;stroke:none"
     id="flowRoot4914">
    <path
       d="m 130.90039,45.597656 h 4.93359 v 0.664063 h -2.07031 v 5.167968 h -0.79297 v -5.167968 h -2.07031 z"
       id="path4926"
       inkscape:connector-curvature="0" />
    <path
       d="m 136.31836,45.597656 h 0.84766 l 1.44921,2.167969 1.45704,-2.167969 h 0.84765 l -1.875,2.800781 2,3.03125 h -0.84765 l -1.64063,-2.480468 -1.65234,2.480468 h -0.85157 l 2.08204,-3.113281 z"
       id="path4928"
       inkscape:connector-curvature="0" />
  </g>
  <g
     aria-label="RX"
     transform="matrix(0,-1.4414222,1,0,-9.036171,-13.019222)"
     style="font-style:normal;font-variant:normal;font-weight:normal;font-stretch:normal;font-size:6.00001764px;line-height:1.25;font-family:sans-serif;-inkscape-font-specification:'sans-serif, Normal';font-variant-ligatures:normal;font-variant-caps:normal;font-variant-numeric:normal;font-feature-settings:normal;text-align:start;letter-spacing:0px;word-spacing:0px;writing-mode:lr-tb;text-anchor:start;fill:#000000;fill-opacity:1;stroke:none;stroke-width:0.75000221"
     id="text4924">
    <path
       d="m -36.972523,107.49038 q 0.190431,0.0644 0.369142,0.27539 0.181641,0.21094 0.363282,0.58008 l 0.600588,1.19532 h -0.635744 l -0.559572,-1.12208 q -0.216797,-0.43945 -0.421876,-0.583 -0.202149,-0.14356 -0.553713,-0.14356 h -0.644533 v 1.84864 h -0.591798 v -4.37404 h 1.335941 q 0.750002,0 1.119144,0.31348 0.369142,0.31348 0.369142,0.94629 0,0.41309 -0.19336,0.68555 -0.190431,0.27246 -0.556643,0.37793 z m -1.482426,-1.83692 v 1.55274 h 0.744143 q 0.427736,0 0.644533,-0.19629 0.219727,-0.19922 0.219727,-0.58301 0,-0.38379 -0.219727,-0.57715 -0.216797,-0.19629 -0.644533,-0.19629 z"
       style="font-style:normal;font-variant:normal;font-weight:normal;font-stretch:normal;font-size:6.00001764px;font-family:sans-serif;-inkscape-font-specification:'sans-serif, Normal';font-variant-ligatures:normal;font-variant-caps:normal;font-variant-numeric:normal;font-feature-settings:normal;text-align:start;writing-mode:lr-tb;text-anchor:start;stroke-width:0.75000221"
       id="path4931"
       inkscape:connector-curvature="0" />
    <path
       d="m -35.085798,105.16713 h 0.635744 l 1.086917,1.62598 1.092777,-1.62598 h 0.635744 l -1.406254,2.10059 1.500004,2.27345 h -0.635744 l -1.230472,-1.86036 -1.239262,1.86036 h -0.638673 l 1.561528,-2.33497 z"
       style="font-style:normal;font-variant:normal;font-weight:normal;font-stretch:normal;font-size:6.00001764px;font-family:sans-serif;-inkscape-font-specification:'sans-serif, Normal';font-variant-ligatures:normal;font-variant-caps:normal;font-variant-numeric:normal;font-feature-settings:normal;text-align:start;writing-mode:lr-tb;text-anchor:start;stroke-width:0.75000221"
       id="path4933"
       inkscape:connector-curvature="0" />
  </g>
</svg>
