G04 MADE WITH FRITZING*
G04 WWW.FRITZING.ORG*
G04 DOUBLE SIDED*
G04 HOLES PLATED*
G04 CONTOUR ON CENTER OF CONTOUR VECTOR*
%ASAXBY*%
%FSLAX23Y23*%
%MOIN*%
%OFA0B0*%
%SFA1.0B1.0*%
%ADD10C,0.078000*%
%ADD11C,0.074000*%
%ADD12C,0.065278*%
%ADD13R,0.074000X0.074000*%
%ADD14C,0.024000*%
%LNCOPPER0*%
G90*
G70*
G54D10*
X1141Y2639D03*
X1241Y2639D03*
G54D11*
X2841Y1139D03*
X2841Y1039D03*
X2841Y939D03*
X2841Y839D03*
G54D12*
X2141Y539D03*
X2241Y539D03*
X2341Y539D03*
X2441Y539D03*
X2541Y539D03*
X1681Y2439D03*
X1581Y2439D03*
X1481Y2439D03*
X1381Y2439D03*
X1281Y2439D03*
X1181Y2439D03*
X1081Y2439D03*
X981Y2439D03*
X881Y2439D03*
X781Y2439D03*
X2541Y2439D03*
X2441Y2439D03*
X2341Y2439D03*
X2241Y2439D03*
X2141Y2439D03*
X2041Y2439D03*
X1941Y2439D03*
X1841Y2439D03*
X1241Y539D03*
X1141Y539D03*
X1341Y539D03*
X1441Y539D03*
X1541Y539D03*
X1641Y539D03*
X1741Y539D03*
X1841Y539D03*
X2041Y539D03*
X2639Y1642D03*
X2539Y1642D03*
X2639Y1542D03*
X2539Y1542D03*
X2639Y1443D03*
X2539Y1443D03*
X771Y2296D03*
X771Y2197D03*
X875Y2296D03*
X875Y2197D03*
X667Y2296D03*
X667Y2197D03*
G54D10*
X1341Y2639D03*
X1441Y2639D03*
G54D13*
X2841Y1139D03*
G54D14*
X1341Y2539D02*
X1341Y2609D01*
D02*
X1369Y2468D02*
X1341Y2539D01*
D02*
X1441Y2539D02*
X1441Y2609D01*
D02*
X1469Y2468D02*
X1441Y2539D01*
D02*
X2741Y539D02*
X2572Y539D01*
D02*
X2831Y809D02*
X2741Y539D01*
D02*
X2641Y939D02*
X2455Y567D01*
D02*
X2810Y939D02*
X2641Y939D01*
D02*
X1841Y1039D02*
X1557Y566D01*
D02*
X2810Y1039D02*
X1841Y1039D01*
G04 End of Copper0*
M02*