; NON-PLATED HOLES START AT T1
; THROUGH (PLATED) HOLES START AT T100
M48
INCH
T100C0.040000
T101C0.040278
T102C0.038000
%
T100
X028444Y007592
X028444Y008592
X028444Y006592
X028444Y009592
T101
X026431Y012634
X011844Y022592
X013844Y022592
X015844Y022592
X025431Y012634
X014844Y022592
X016844Y022592
X007745Y021161
X026431Y013627
X015444Y003592
X013444Y003592
X011444Y003592
X025431Y013627
X006706Y021161
X018444Y003592
X016444Y003592
X014444Y003592
X012444Y003592
X017444Y003592
X026431Y014619
X008785Y020169
X018444Y022592
X025431Y014619
X019444Y022592
X025444Y003592
X023444Y003592
X021444Y003592
X020444Y003592
X024444Y003592
X022444Y003592
X021444Y022592
X023444Y022592
X025444Y022592
X020444Y022592
X022444Y022592
X024444Y022592
X008785Y021161
X007844Y022592
X008844Y022592
X007745Y020169
X009844Y022592
X006706Y020169
X010844Y022592
X012844Y022592
T102
X014444Y024592
X013444Y024592
X012444Y024592
X011444Y024592
T00
M30
