; NON-PLATED HOLES START AT T1
; THROUGH (PLATED) HOLES START AT T100
M48
INCH
T100C0.040000
T101C0.040278
T102C0.038000
%
T100
X028407Y008388
X028407Y009388
X028407Y010388
X028407Y011388
T101
X011407Y005388
X016407Y005388
X014407Y005388
X012407Y005388
X017407Y005388
X015407Y005388
X013407Y005388
X018407Y005388
X019407Y024388
X008748Y021965
X021407Y005388
X018407Y024388
X020407Y005388
X024407Y005388
X022407Y005388
X025407Y005388
X023407Y005388
X021407Y024388
X006669Y021965
X008748Y022957
X026394Y014431
X020407Y024388
X022407Y024388
X024407Y024388
X025394Y014431
X023407Y024388
X025407Y024388
X008807Y024388
X006669Y022957
X007807Y024388
X009807Y024388
X026394Y015423
X007708Y021965
X025394Y015423
X011807Y024388
X013807Y024388
X010807Y024388
X012807Y024388
X014807Y024388
X016807Y024388
X026394Y016415
X007708Y022957
X015807Y024388
X025394Y016415
T102
X014407Y026388
X013407Y026388
X012407Y026388
X011407Y026388
T00
M30
